<?xml version="1.0" encoding="UTF-8"?>
<svg width="28px" height="20px" viewBox="0 0 28 20" version="1.1" xmlns="http://www.w3.org/2000/svg" xmlns:xlink="http://www.w3.org/1999/xlink">
    <!-- Generator: Sketch 52.6 (67491) - http://www.bohemiancoding.com/sketch -->
    <title>icon-youtube</title>
    <desc>Created with Sketch.</desc>
    <g id="Sprint-2" stroke="none" stroke-width="1" fill="none" fill-rule="evenodd">
        <g id="LLMedical-HomePage_1440" transform="translate(-304.000000, -2086.000000)" fill="#FFFFFF">
            <g id="Footer-Map" transform="translate(0.000000, 2001.000000)">
                <g id="social" transform="translate(120.000000, 81.000000)">
                    <path d="M211.414789,7.1230643 C212,9.35120174 212,14.0001116 212,14.0001116 C212,14.0001116 212,18.6490215 211.414789,20.8769357 C211.092789,22.1062952 210.14418,23.0745484 208.939414,23.4030659 C206.755633,24 197.999891,24 197.999891,24 C197.999891,24 189.244148,24 187.060313,23.4030659 C185.85582,23.0745484 184.906937,22.1062952 184.584937,20.8769357 C184,18.6490215 184,14.0001116 184,14.0001116 C184,14.0001116 184,9.35120174 184.584937,7.1230643 C184.906937,5.89370476 185.85582,4.92567481 187.060313,4.59715735 C189.244148,4 197.999891,4 197.999891,4 C197.999891,4 206.755633,4 208.939414,4.59715735 C210.14418,4.92567481 211.092789,5.89370476 211.414789,7.1230643 Z M195.199781,18.2859056 L202.474203,14.0001116 L195.199781,9.7143176 L195.199781,18.2859056 Z" id="icon-youtube"></path>
                </g>
            </g>
        </g>
    </g>
</svg>