<?xml version="1.0" encoding="UTF-8"?>
<svg width="28px" height="28px" viewBox="0 0 28 28" version="1.1" xmlns="http://www.w3.org/2000/svg" xmlns:xlink="http://www.w3.org/1999/xlink">
    <!-- Generator: Sketch 52.6 (67491) - http://www.bohemiancoding.com/sketch -->
    <title>icon-linkedin</title>
    <desc>Created with Sketch.</desc>
    <g id="Sprint-2" stroke="none" stroke-width="1" fill="none" fill-rule="evenodd">
        <g id="LLMedical-HomePage_1440" transform="translate(-120.000000, -2082.000000)" fill="#FFFFFF">
            <g id="Footer-Map" transform="translate(0.000000, 2001.000000)">
                <g id="social" transform="translate(120.000000, 81.000000)">
                    <path d="M28,3.5 L28,24.5 C28,26.4317266 26.4317266,28 24.5,28 L3.5,28 C1.56827344,28 0,26.4317266 0,24.5 L0,3.5 C0,1.56827344 1.56827344,0 3.5,0 L24.5,0 C26.4317266,0 28,1.56827344 28,3.5 Z M3.33883594,9.77085156 L3.33883594,23.8781484 L8.02883594,23.8781484 L8.02883594,9.77085156 L3.33883594,9.77085156 Z M5.7155,2.9684375 C4.11091406,2.9684375 3.0625,4.02335937 3.0625,5.40602344 C3.0625,6.75964844 4.07903125,7.84366406 5.65342969,7.84366406 L5.68372656,7.84366406 C7.31904688,7.84366406 8.33694531,6.75964844 8.33694531,5.40602344 C8.30659375,4.02335937 7.31915625,2.9684375 5.7155,2.9684375 Z M19.5386406,9.43911719 C17.0509063,9.43911719 15.9365938,10.8072344 15.3126094,11.7682031 L15.3126094,9.77085156 L10.6238125,9.77085156 C10.6859922,11.094125 10.6238125,23.8780937 10.6238125,23.8780937 L15.3125547,23.8780937 L15.3125547,15.9995937 C15.3125547,15.5778984 15.3428516,15.1563125 15.4671563,14.8549297 C15.8055625,14.0127422 16.5775859,13.1403672 17.8730234,13.1403672 C19.5689922,13.1403672 20.2484297,14.4344922 20.2484297,16.330125 L20.2484297,23.8780937 L24.9373906,23.8780937 L24.9373906,15.7881719 C24.9373906,11.4548984 22.6238359,9.43911719 19.5386406,9.43911719 Z" id="icon-linkedin"></path>
                </g>
            </g>
        </g>
    </g>
</svg>