<?xml version="1.0" encoding="UTF-8"?>
<svg width="28px" height="28px" viewBox="0 0 28 28" version="1.1" xmlns="http://www.w3.org/2000/svg" xmlns:xlink="http://www.w3.org/1999/xlink">
    <!-- Generator: Sketch 52.6 (67491) - http://www.bohemiancoding.com/sketch -->
    <title>icon-twitter</title>
    <desc>Created with Sketch.</desc>
    <g id="Sprint-2" stroke="none" stroke-width="1" fill="none" fill-rule="evenodd">
        <g id="LLMedical-HomePage_1440" transform="translate(-166.000000, -2082.000000)" fill="#FFFFFF">
            <g id="Footer-Map" transform="translate(0.000000, 2001.000000)">
                <g id="social" transform="translate(120.000000, 81.000000)">
                    <path d="M70.5,28 L49.5,28 C47.568,28 46,26.432 46,24.5 L46,3.5 C46,1.568 47.568,0 49.5,0 L70.5,0 C72.432,0 74,1.568 74,3.5 L74,24.5 C74,26.432 72.432,28 70.5,28 Z M56.752,21.112 C63.353,21.112 66.965,15.638 66.965,10.899 C66.965,10.745 66.965,10.591 66.958,10.437 C67.658,9.933 68.267,9.296 68.75,8.575 C68.106,8.862 67.413,9.051 66.685,9.142 C67.427,8.701 67.994,7.994 68.267,7.154 C67.574,7.567 66.804,7.861 65.985,8.022 C65.327,7.322 64.396,6.888 63.367,6.888 C61.386,6.888 59.776,8.498 59.776,10.479 C59.776,10.759 59.811,11.032 59.867,11.298 C56.885,11.151 54.239,9.716 52.468,7.546 C52.16,8.078 51.985,8.694 51.985,9.352 C51.985,10.598 52.622,11.697 53.581,12.341 C52.993,12.32 52.44,12.159 51.957,11.893 L51.957,11.942 C51.957,13.678 53.196,15.134 54.834,15.463 C54.533,15.547 54.218,15.589 53.889,15.589 C53.658,15.589 53.434,15.568 53.217,15.526 C53.672,16.954 55.002,17.99 56.57,18.018 C55.338,18.984 53.791,19.558 52.111,19.558 C51.824,19.558 51.537,19.544 51.257,19.509 C52.839,20.517 54.729,21.112 56.752,21.112 Z" id="icon-twitter"></path>
                </g>
            </g>
        </g>
    </g>
</svg>