<?xml version="1.0" encoding="UTF-8"?>
<svg width="24px" height="22px" viewBox="0 0 24 22" version="1.1" xmlns="http://www.w3.org/2000/svg" xmlns:xlink="http://www.w3.org/1999/xlink">
    <!-- Generator: Sketch 52.6 (67491) - http://www.bohemiancoding.com/sketch -->
    <title>icon-health</title>
    <desc>Created with Sketch.</desc>
    <defs>
        <path d="M13.7,3.054 C13.346,3.622 12.718,4 12,4 C10.896,4 10,3.104 10,2 C10,0.896 10.896,2.22044605e-16 12,2.22044605e-16 C12.759,2.22044605e-16 13.42,0.424 13.759,1.047 C16.349,1.342 18.145,2.833 17.992,5.286 C17.807,8.145 14.698,12.905 11.991,14.976 C11.894,16.049 11.282,17.208 10.197,17.884 C11.19,19.493 12.733,20.169 14.415,19.971 C16.044,19.78 17.559,18.605 18.375,17.278 C17.539,16.637 17,15.631 17,14.5 C17,12.568 18.568,10.999 20.5,10.999 C22.431,10.999 24,12.568 24,14.5 C24,16.436 22.403,18.101 20.272,17.991 C19.117,20.123 16.671,22 13.92,22 C11.207,22 9.129,20.503 8,17.999 C6.947,17.368 6.171,16.062 6.015,14.97 C3.24,12.832 0,7.799 0,5.007 C0,2.625 1.875,1.325 4.24,1.05 C4.578,0.425 5.24,0 6,0 C7.104,0 8,0.896 8,2 C8,3.104 7.104,4 6,4 C5.285,4 4.657,3.624 4.304,3.059 C2.254,3.358 1.752,4.346 2.114,5.791 C2.747,8.358 5.719,12.659 8.022,13.912 C8.779,14.328 9.215,14.333 9.982,13.914 C12.708,12.431 15.963,7.217 16,5.056 C16.022,3.768 14.971,3.235 13.7,3.054 M20.5,16 C19.672,16 19,15.326 19,14.5 C19,13.672 19.672,13 20.5,13 C21.328,13 22,13.672 22,14.5 C22,15.326 21.328,16 20.5,16" id="path-1"></path>
    </defs>
    <g id="Symbols" stroke="none" stroke-width="1" fill="none" fill-rule="evenodd">
        <g id="icons/icon-health">
            <mask id="mask-2" fill="white">
                <use xlink:href="#path-1"></use>
            </mask>
            <use id="icon-health" fill="#003C8B" xlink:href="#path-1"></use>
        </g>
    </g>
</svg>