<?xml version="1.0" encoding="UTF-8"?>
<svg width="21px" height="24px" viewBox="0 0 21 24" version="1.1" xmlns="http://www.w3.org/2000/svg" xmlns:xlink="http://www.w3.org/1999/xlink">
    <!-- Generator: Sketch 52.6 (67491) - http://www.bohemiancoding.com/sketch -->
    <title>icon-dental</title>
    <desc>Created with Sketch.</desc>
    <defs>
        <path d="M17.413506,19.7162631 C17.758934,17.8984266 17.7181739,15.7170761 17.2104621,13.5543611 C16.9299143,12.3593036 17.1417625,11.34772 17.7636344,10.1867322 C17.8689886,9.99004383 17.9834373,9.79193425 18.135483,9.53933544 C18.1771594,9.47009703 18.437045,9.04291168 18.5115682,8.91827154 C19.050316,8.01721497 19.3406988,7.38012212 19.5103391,6.61329715 C20.0160013,4.32755176 18.2061552,2 15.8558113,2 C14.6261039,2 13.6109424,2.59145948 11.7060332,4.2125305 C11.5577846,4.33883564 11.5577846,4.33883564 11.4087241,4.46594213 C11.2592081,4.59325202 11.1978775,4.64532273 11.1086642,4.72057354 C10.8791368,4.91417847 10.6849323,5.07441687 10.4972499,5.22398856 C9.83909682,5.7484973 9.27652967,6.12716312 8.70283466,6.40543158 C8.20591958,6.64645823 7.60769961,6.43901968 7.36667295,5.9421046 C7.12564629,5.44518952 7.33308485,4.84696955 7.82999993,4.60594289 C8.24871123,4.40284866 8.69816991,4.10031653 9.2507799,3.6599193 C9.42206042,3.52341894 9.60268503,3.37438534 9.8191513,3.19179742 C9.85729128,3.1596266 9.89011469,3.13187644 9.92760092,3.10008424 C9.37564034,2.80338914 8.3877736,2.51475036 7.36330944,2.46173375 C5.65652857,2.37340687 4.22314485,2.88379612 3.42462104,3.97908181 C2.76394301,4.88529299 2.88035478,6.15096327 3.71728233,8.2247374 C3.85689812,8.57068326 4.0029098,8.91072275 4.23427326,9.43504775 C5.50653435,12.318296 5.8078855,13.2282679 5.5905784,14.5224533 C5.23147048,16.6611419 6.15392634,20.3386679 7.09393731,21.6473016 C7.16339924,21.472551 7.23919092,21.2581417 7.32100705,21.00363 C7.45334439,20.591958 7.93915417,18.9090509 7.98738571,18.7487036 C8.94042176,15.5803056 9.80118595,14.0734985 11.5886473,14.0734985 C13.3338684,14.0734985 14.4228202,15.5894957 15.7175003,18.6213683 C15.838406,18.9045046 16.6673048,20.94447 16.8705095,21.3843567 C16.8797288,21.4043144 16.8888478,21.4239005 16.8978646,21.4431138 C17.1013588,21.0004382 17.2825592,20.4053786 17.413506,19.7162631 Z M11.5332944,1.77182699 C13.1540492,0.518873589 14.3179606,1.11022302e-16 15.8558113,0 C19.5003007,0 22.2417572,3.52564896 21.463125,7.04530069 C21.2382488,8.06180874 20.8673812,8.87548313 20.2281372,9.94461977 C20.148774,10.0773549 19.8867784,10.5080086 19.8490112,10.5707525 C19.7127098,10.7971946 19.6135203,10.9688908 19.5266486,11.1310737 C19.1155758,11.8985155 19.0026734,12.4376291 19.1575295,13.0972739 C20.2942415,17.9393595 19.2683184,23.3383439 17.1578157,23.911615 C16.1400932,24.1880566 15.6940288,23.6066954 15.0548735,22.2230856 C14.8283058,21.7326238 13.9828806,19.6519857 13.8781808,19.4068005 C12.9350492,17.1981818 12.127181,16.0734985 11.5886473,16.0734985 C11.1653146,16.0734985 10.5639277,17.1262538 9.90261908,19.3247949 C9.86200851,19.459806 9.36830487,21.1700584 9.22504504,21.6157079 C8.99300672,22.3375274 8.78763361,22.8366042 8.53924814,23.2101484 C8.07658046,23.9059492 7.35092274,24.2485943 6.56968792,23.8262742 C4.61008776,22.766953 3.07832814,17.406447 3.61818978,14.1912688 C3.73913993,13.470943 3.4685534,12.6538692 2.40449387,10.2424555 C2.16516722,9.70008405 2.01213024,9.34368371 1.86262537,8.97323429 C0.789264674,6.31361619 0.61655052,4.43580621 1.80852028,2.80085504 C3.96134161,-0.152036769 9.42780923,-0.12034779 11.5332944,1.77182699 Z" id="path-1"></path>
    </defs>
    <g id="Symbols" stroke="none" stroke-width="1" fill="none" fill-rule="evenodd">
        <g id="icons/icon-dental" transform="translate(-1.000000, 0.000000)">
            <mask id="mask-2" fill="white">
                <use xlink:href="#path-1"></use>
            </mask>
            <use id="icon-dental" fill="#003C8B" fill-rule="nonzero" xlink:href="#path-1"></use>
        </g>
    </g>
</svg>