<?xml version="1.0" encoding="UTF-8"?>
<svg width="28px" height="28px" viewBox="0 0 28 28" version="1.1" xmlns="http://www.w3.org/2000/svg" xmlns:xlink="http://www.w3.org/1999/xlink">
    <!-- Generator: Sketch 52.6 (67491) - http://www.bohemiancoding.com/sketch -->
    <title>icon-instagram</title>
    <desc>Created with Sketch.</desc>
    <g id="Sprint-2" stroke="none" stroke-width="1" fill="none" fill-rule="evenodd">
        <g id="LLMedical-HomePage_1440" transform="translate(-212.000000, -2082.000000)" fill="#FFFFFF" fill-rule="nonzero">
            <g id="Footer-Map" transform="translate(0.000000, 2001.000000)">
                <g id="social" transform="translate(120.000000, 81.000000)">
                    <path d="M106.000055,-5.68434189e-14 C109.802163,-5.6527698e-14 110.278931,0.0161328755 111.772179,0.0842737667 C113.26231,0.152250595 114.280048,0.388884332 115.170528,0.735002871 C116.091141,1.09276989 116.871917,1.57150614 117.650288,2.34982168 C118.428549,3.12808253 118.907285,3.90885902 119.265052,4.82947199 C119.611116,5.71995203 119.847804,6.73769038 119.915781,8.2278212 C119.983867,9.72106922 120,10.1978367 120,14.0000547 C120,17.8021633 119.983867,18.2789308 119.915781,19.7721788 C119.847804,21.2623096 119.611116,22.280048 119.265052,23.170528 C118.907285,24.091141 118.428549,24.8719175 117.650288,25.6502877 C116.871917,26.4285485 116.091141,26.9072848 115.170528,27.2650518 C114.280048,27.6111157 113.26231,27.8478041 111.772179,27.9157809 C110.278931,27.9838671 109.802163,28 106.000055,28 C102.197837,28 101.721069,27.9838671 100.227821,27.9157809 C98.7376904,27.8478041 97.719952,27.6111157 96.8294173,27.2650518 C95.9088043,26.9072848 95.1280278,26.4285485 94.349767,25.6502877 C93.5714515,24.8719175 93.0927152,24.091141 92.7349482,23.170528 C92.3888296,22.280048 92.1521959,21.2623096 92.0842191,19.7721788 C92.0160782,18.2789308 92,17.8021633 92,14.0000547 C92,10.1978367 92.0160782,9.72106922 92.0842191,8.2278212 C92.1521959,6.73769038 92.3888296,5.71995203 92.7349482,4.82947199 C93.0927152,3.90885902 93.5714515,3.12808253 94.349767,2.34982168 C95.1280278,1.57150614 95.9088043,1.09276989 96.8294173,0.735002871 C97.719952,0.388884332 98.7376904,0.152250595 100.227821,0.0842737667 C101.721069,0.0161328755 102.197837,-5.68434189e-14 106.000055,-5.68434189e-14 Z M106.000055,2.52258017 C102.261876,2.52258017 101.81907,2.53679897 100.342775,2.60417424 C98.9778241,2.66646354 98.2365322,2.89451131 97.7431943,3.08619174 C97.0897308,3.34016149 96.623354,3.64356892 96.1334068,4.13346146 C95.6435142,4.623354 95.3401068,5.08978551 95.0861917,5.74319431 C94.8944566,6.23653217 94.6664089,6.97782413 94.6041195,8.34277478 C94.5367443,9.81906961 94.5225255,10.261876 94.5225255,14.0000547 C94.5225255,17.7381787 94.5367443,18.1809851 94.6041195,19.6572252 C94.6664089,21.0221759 94.8944566,21.7634678 95.0861917,22.2568057 C95.3401068,22.9102692 95.6435142,23.376646 96.1334068,23.8665385 C96.623354,24.3564858 97.0897308,24.6598385 97.7431943,24.9138083 C98.2365322,25.1055434 98.9778241,25.3335911 100.342775,25.3958258 C101.818906,25.463201 102.261548,25.4774745 106.000055,25.4774745 C109.738452,25.4774745 110.181204,25.463201 111.657225,25.3958258 C113.022176,25.3335911 113.763468,25.1055434 114.256806,24.9138083 C114.910269,24.6598385 115.376646,24.3564858 115.866539,23.8665385 C116.356486,23.376646 116.659839,22.9102692 116.913808,22.2568057 C117.105543,21.7634678 117.333591,21.0221759 117.39588,19.6572252 C117.463201,18.1809851 117.477475,17.7381787 117.477475,14.0000547 C117.477475,10.261876 117.463201,9.81906961 117.39588,8.34277478 C117.333591,6.97782413 117.105543,6.23653217 116.913808,5.74319431 C116.659839,5.08978551 116.356486,4.623354 115.866539,4.13346146 C115.376646,3.64356892 114.910269,3.34016149 114.256806,3.08619174 C113.763468,2.89451131 113.022176,2.66646354 111.657225,2.60417424 C110.180985,2.53679897 109.738179,2.52258017 106.000055,2.52258017 Z M106.000055,18.6666667 C108.577323,18.6666667 110.666667,16.5773226 110.666667,14.0000547 C110.666667,11.4226774 108.577323,9.33333333 106.000055,9.33333333 C103.422677,9.33333333 101.333333,11.4226774 101.333333,14.0000547 C101.333333,16.5773226 103.422677,18.6666667 106.000055,18.6666667 Z M106.000055,6.81080785 C109.970492,6.81080785 113.189192,10.0295079 113.189192,14.0000547 C113.189192,17.9704921 109.970492,21.1891921 106.000055,21.1891921 C102.029508,21.1891921 98.8108079,17.9704921 98.8108079,14.0000547 C98.8108079,10.0295079 102.029508,6.81080785 106.000055,6.81080785 Z M115.153247,6.52675987 C115.153247,7.45464631 114.401072,8.20676643 113.47324,8.20676643 C112.545408,8.20676643 111.793234,7.45464631 111.793234,6.52675987 C111.793234,5.59892812 112.545408,4.846808 113.47324,4.846808 C114.401072,4.846808 115.153247,5.59892812 115.153247,6.52675987 Z" id="icon-instagram"></path>
                </g>
            </g>
        </g>
    </g>
</svg>